<?xml version="1.0" standalone="no"?><!DOCTYPE svg PUBLIC "-//W3C//DTD SVG 1.1//EN" "http://www.w3.org/Graphics/SVG/1.1/DTD/svg11.dtd"><svg t="1734076489976" class="icon" viewBox="0 0 1024 1024" version="1.1" xmlns="http://www.w3.org/2000/svg" p-id="3879" xmlns:xlink="http://www.w3.org/1999/xlink" width="256" height="256"><path d="M1000.851394 604.749576v19.797333l-0.310303 0.651636c-5.523394 21.907394-22.683152 29.385697-36.864 33.574788-31.340606 9.588364-64.729212 19.828364-101.872485 32.271515-4.12703 1.427394-10.395152 3.165091-11.046788 4.592485-0.620606 1.117091-0.310303 6.733576 0 11.667394v0.341334c0 2.420364 0.310303 4.623515 0.310303 7.043878v1.768728c1.737697 47.414303-0.620606 96.193939-6.888727 149.348848-2.792727 23.334788-4.871758 27.61697-26.158546 33.574788-30.347636 8.471273-60.602182 16.601212-91.291151 25.072485-51.665455 14.211879-103.641212 28.299636-155.399758 42.821818-28.237576 7.819636-56.847515 15.949576-84.712727 23.676121l-38.260364 10.550303-0.651636 0.310303h-3.475394l-1.05503-0.310303c-11.046788-3.196121-16.880485-12.008727-21.410909-19.797333l-3.444364-6.050909c-7.571394-14.211879-15.453091-29.075394-24.420848-42.821818-54.365091-83.968-127.751758-160.116364-223.914667-232.665212-29.602909-22.341818-61.253818-42.821818-92.284121-62.619152-11.326061-7.043879-22.683152-14.553212-34.133334-21.907394-12.412121-8.16097-20.324848-16.942545-25.196606-27.61697l-0.620606-1.458424V567.854545l0.620606-1.427393A128 128 0 0 1 76.955152 507.655758a124.338424 124.338424 0 0 1 82.01309-10.24c7.230061 1.458424 13.715394 4.313212 19.673213 7.509333 17.935515 10.24 35.87103 21.224727 53.372121 31.464727 7.230061 4.282182 14.149818 8.471273 21.410909 12.753455 10.674424 6.392242 15.453091 16.632242 11.667394 26.530909a28.951273 28.951273 0 0 1-16.228849 16.632242c-5.182061 1.768727-12.101818 0.651636-20.293818-4.282182-3.785697-2.110061-7.261091-4.313212-11.046788-6.081939-14.801455-8.129939-30.347636-16.601212-44.373333-26.841212-20.666182-14.863515-42.697697-16.942545-71.68-6.702546-15.887515 5.585455-27.865212 12.412121-35.746909 25.848243 3.10303 2.110061 6.144 3.847758 9.309091 6.050909 9.929697 6.733576 20.604121 13.436121 30.999272 19.828364 111.616 68.670061 207.034182 152.54497 283.865213 249.049212 16.539152 20.914424 31.030303 43.473455 44.745697 65.039515 6.144 9.588364 12.412121 19.48703 18.897454 29.385697 1.396364 2.110061 2.792727 4.654545 4.096 7.043879l37.515636-10.24c33.047273-9.216 65.784242-18.028606 98.552243-27.306667l28.951273-7.757576c56.164848-15.546182 114.005333-31.495758 171.163151-46.700606 5.182061-1.427394 6.17503-2.513455 6.17503-8.471273 0.620606-14.522182 1.396364-29.044364 2.358303-43.132121a1232.213333 1232.213333 0 0 0 3.134061-60.540121c1.396364-73.634909-13.715394-143.980606-28.951273-203.062303-25.196606-97.962667-51.975758-201.945212-82.664727-317.750303a72.176485 72.176485 0 0 0-12.101818-24.079515c-5.833697-7.819636-16.539152-15.980606-32.426667-10.581334-16.539152 5.275152-20.945455 19.145697-22.031515 29.727031-0.651636 7.819636 0.310303 16.601212 2.699636 26.499879 8.967758 34.691879 17.935515 69.694061 26.903273 104.013575 6.578424 25.103515 13.405091 51.293091 19.983515 77.172364 1.086061 3.847758 2.389333 11.667394 0.310303 18.711273-2.668606 9.898667-11.015758 15.949576-21.721212 15.515151-11.326061-0.341333-18.556121-7.043879-22.031515-20.169697l-13.063758-49.834666c-6.17503-24.451879-12.753455-48.407273-18.928484-72.859152-4.096-15.515152-7.881697-31.154424-12.101819-46.328242-11.015758-42.170182-22.341818-85.953939-33.698909-128.775758a72.176485 72.176485 0 0 0-12.101818-24.110545c-8.316121-10.550303-19.673212-14.863515-31.992242-11.326061-15.453091 4.282182-19.983515 18.369939-21.721212 26.189576a64.853333 64.853333 0 0 0 0.651636 25.848242c19.673212 77.172364 40.308364 155.306667 59.981576 231.020606 5.492364 21.566061 11.015758 42.821818 16.849454 64.387879 0 0.651636 0.310303 1.117091 0.310303 1.768727 0.310303 1.768727 1.086061 3.506424 1.427394 5.585455 2.048 14.894545-4.12703 25.444848-16.880485 28.64097-12.101818 2.854788-23.117576-3.847758-26.903272-17.718304-3.785697-12.784485-7.230061-25.444848-10.364122-38.167272l-2.048-7.850667c-11.667394-44.900848-23.458909-89.460364-35.126303-134.485333-14.491152-55.916606-28.951273-111.833212-43.442424-167.408485-5.492364-21.224727-18.928485-34.009212-38.260363-35.312485-17.594182-1.427394-35.095273 9.557333-42.015031 26.189576-3.785697 9.24703-4.12703 18.711273-0.651636 31.80606l35.126303 135.168c8.626424 32.892121 17.159758 65.473939 25.475879 98.366061 3.785697 14.553212 7.571394 28.64097 11.357091 43.132121 5.833697 22.683152 11.667394 44.931879 17.625212 67.615031 2.699636 10.550303 1.396364 20.138667-4.127031 26.499878-4.406303 5.616485-11.326061 8.16097-19.331878 7.509334-15.453091-1.768727-19.331879-15.980606-20.635152-21.255758L386.637576 459.248485l-14.367031-55.140849-14.149818-58.771394a29852.454788 29852.454788 0 0 0-44.745697-170.945939c-5.833697-21.566061-17.594182-33.202424-35.095272-34.009212-20.666182-1.086061-36.864 9.24703-44.435394 27.958303-3.444364 8.471273-3.444364 18.059636-0.310303 30.844121l84.619636 324.887273 15.856485 60.509091c1.086061 3.196121 1.737697 6.733576 2.389333 10.24 2.699636 14.553212-3.444364 25.879273-15.887515 29.385697-12.412121 3.537455-24.079515-4.282182-27.865212-18.028606-3.785697-13.436121-7.261091-27.306667-10.705455-40.277334-1.396364-4.654545-2.389333-9.588364-3.785697-14.211878l-12.412121-47.786667c-5.833697-22.652121-11.698424-44.869818-17.625212-67.55297-4.871758 10.550303-8.998788 20.48-13.405091 30.813091-1.086061 2.07903-1.737697 4.654545-2.389333 7.043879l-2.048 6.392242c-5.182061 13.746424-16.849455 20.138667-28.951273 15.515152-12.412121-4.654545-17.935515-16.632242-13.839515-30.378667a275.952485 275.952485 0 0 1 40.339394-84.526545c3.413333-4.964848 4.096-8.471273 2.358303-14.522182-12.101818-44.900848-24.420848-92.687515-40.649697-154.65503C177.865697 166.818909 193.008485 127.844848 231.268848 105.50303c22.683152-13.094788 48.190061-15.515152 74.007273-6.050909a25.413818 25.413818 0 0 1 5.833697 2.544485c13.839515-33.574788 38.912-53.061818 73.69697-57.033697 34.474667-3.847758 62.060606 9.588364 82.013091 39.625697 4.437333-4.282182 8.998788-8.471273 14.180848-11.667394a72.455758 72.455758 0 0 1 57.468121-9.557333c20.324848 4.964848 37.174303 17.687273 47.538425 36.088242 7.261091 12.753455 11.357091 26.841212 15.887515 40.277334 1.737697 5.616485 3.475394 11.357091 5.523394 16.632242 0.620606 1.768727 1.396364 3.847758 1.737697 5.585455 1.396364-0.620606 2.792727-1.737697 4.096-2.482425 8.657455-5.306182 17.935515-11.046788 27.865212-13.777454 38.260364-11.015758 78.910061 11.977697 93.059879 52.720485 7.571394 22.341818 13.405091 45.211152 19.331878 67.552969 1.396364 4.964848 2.389333 9.929697 3.785697 14.894546l9.929697 38.167272c19.673212 76.024242 40.339394 154.624 59.578182 232.106667 5.802667 23.334788 10.364121 47.445333 14.770424 70.780121 1.737697 8.471273 3.475394 16.942545 5.182061 25.848243l108.51297-33.978182c-2.699636-11.667394-9.929697-21.597091-22.714182-30.844121-17.935515-12.753455-37.484606-24.420848-61.998545-20.914425a19.456 19.456 0 0 1-15.142788-4.282181 21.317818 21.317818 0 0 1-8.657455-14.863515c-1.706667-13.405091 4.437333-24.079515 15.887515-25.848243 10.395152-1.768727 23.800242-3.537455 36.212364-0.651636 42.356364 9.557333 74.007273 31.806061 94.021818 66.466909 2.699636 4.623515 4.406303 9.929697 6.578424 14.522182 0.651636 2.07903 1.737697 4.282182 2.389334 6.050909l-0.99297 1.334303z" fill="#2c2c2c" p-id="3880"></path><path d="M910.491152 244.984242c-21.504 40.029091-44.621576 79.592727-67.118546 118.194425l-23.893333 40.649697c-4.871758 8.316121-12.132848 12.877576-20.076606 12.877575a26.127515 26.127515 0 0 1-11.729455-3.13406 21.410909 21.410909 0 0 1-10.736485-13.218909c-1.737697-6.268121-0.310303-13.498182 3.785697-20.542061 11.419152-20.107636 22.807273-39.998061 34.629818-60.105697a13042.036364 13042.036364 0 0 0 47.166061-82.075151c4.871758-8.316121 9.619394-17.066667 12.132849-26.065455 5.554424-19.145697-4.437333-39.253333-23.583031-48.003879-20.728242-9.743515-37.670788-4.871758-50.455273 13.963637-5.554424 7.974788-10.767515 15.980606-16.290909 23.986424l-12.598303 18.804364c-6.206061 9.433212-16.632242 12.567273-25.63103 8.347151-6.950788-3.134061-13.156848-9.743515-14.894545-16.321939-2.048-7.354182 2.07903-15.701333 4.468363-20.138667 4.12703-7.323152 8.998788-14.273939 13.125818-21.162667 5.554424-8.688485 11.419152-17.43903 16.29091-26.375757 10.426182-18.40097 8.688485-36.584727-5.523394-50.734546a41.890909 41.890909 0 0 0-34.660849-13.187879 40.96 40.96 0 0 0-30.409697 19.145697c-4.437333 6.919758-8.688485 14.273939-12.815515 21.504-3.475394 6.268121-7.261091 12.877576-11.388121 19.456-2.823758 4.561455-8.378182 11.791515-15.980606 13.187879-6.919758 1.427394-17.687273-0.620606-22.124606-6.578424-5.895758-7.354182-4.902788-19.145697-4.127031-22.590061 0.620606-4.871758 2.048-9.743515 3.475394-14.273939 1.396364-5.523394 3.134061-10.395152 3.134061-15.266909 0.310303-7.664485-1.396364-21.193697-15.949576-28.113455-11.419152-5.182061-23.272727-3.785697-35.312485 5.213091-1.396364 1.05503-2.699636 2.048-4.12703 3.444364-1.396364 1.396364-3.134061 2.792727-4.437333 3.785697-9.681455 7.230061-22.49697 6.609455-30.409697-1.737697a22.807273 22.807273 0 0 1-0.310303-31.650909C562.734545 25.351758 591.189333 14.956606 617.813333 19.083636c23.241697 3.444364 42.542545 17.066667 53.310061 38.260364 27.67903-23.676121 57.778424-28.858182 90.360242-16.011636 32.581818 12.877576 51.882667 37.85697 56.475152 72.362666h6.17503c8.688485 0 17.687273 0.310303 26.282667 2.048 29.106424 6.578424 52.224 24.979394 63.612121 50.393212 11.977697 24.203636 10.24 53.061818-3.568485 78.81697zM126.107152 354.086788c-19.766303 7.664485-37.670788 13.529212-55.389091 18.369939-1.737697 0.651636-3.785697 0.651636-5.523394 0.651637-8.254061 0-15.980606-5.492364-19.021576-14.584243-4.437333-11.791515-0.620606-22.931394 8.998788-27.151515 13.808485-5.926788 27.710061-10.798545 41.177212-15.235879 4.902788-1.737697 9.681455-3.475394 14.242909-5.18206l1.396364-0.310303h1.427394c5.213091 0.310303 20.417939 2.01697 24.203636 17.376969 2.947879 11.884606-1.861818 22.279758-11.481212 26.065455z m14.894545-213.333333l-2.389333 3.10303c-0.651636 1.117091-1.737697 2.513455-2.730667 3.816727-2.792727 4.220121-5.523394 8.657455-10.736485 10.798546a22.55903 22.55903 0 0 1-8.998788 1.427394 23.334788 23.334788 0 0 1-14.584242-4.561455c-13.467152-11.481212-25.63103-24.327758-35.622788-35.467636-8.254061-9.060848-7.602424-21.938424 1.086061-30.906182 8.688485-8.347152 22.49697-8.688485 30.844121-0.651637 12.505212 11.481212 24.203636 23.986424 34.971151 35.467637 2.389333 2.482424 3.475394 5.492364 4.468364 8.626424 0.310303 1.427394 1.086061 2.823758 1.737697 4.220121l1.954909 4.127031z m99.234909-66.404849l-3.134061 3.475394-4.12703 5.182061c-3.165091 4.220121-6.206061 8.316121-11.077818 10.798545a19.642182 19.642182 0 0 1-27.244606-7.230061 347.229091 347.229091 0 0 1-18.711273-38.291393c-4.12703-10.053818-0.620606-20.107636 8.998788-26.375758 10.457212-6.578424 21.845333-5.182061 27.399758 2.792727 6.609455 10.084848 12.474182 20.573091 18.338909 31.71297 2.389333 4.530424 4.902788 9.091879 7.602424 13.963636l1.954909 3.971879zM116.673939 251.252364a20.200727 20.200727 0 0 1-14.584242 7.261091c-6.609455 0.310303-12.784485 0.620606-19.300849 0.620606-6.206061 0-12.505212-0.310303-18.369939-0.620606-11.729455-0.651636-20.417939-10.829576-20.076606-23.272728 0.310303-12.194909 8.998788-20.852364 21.069576-21.938424 4.437333-0.310303 8.998788-0.310303 13.125818 0h22.155636a22.993455 22.993455 0 0 1 15.980606 37.950061z" fill="#2c2c2c" p-id="3881"></path></svg>