<?xml version="1.0" standalone="no"?><!DOCTYPE svg PUBLIC "-//W3C//DTD SVG 1.1//EN" "http://www.w3.org/Graphics/SVG/1.1/DTD/svg11.dtd"><svg t="1734055227711" class="icon" viewBox="0 0 1024 1024" version="1.1" xmlns="http://www.w3.org/2000/svg" p-id="1790" width="256" height="256" xmlns:xlink="http://www.w3.org/1999/xlink"><path d="M511.8 123.9c52.6 0 103.7 10.3 151.7 30.6 46.4 19.6 88.1 47.7 123.9 83.5 35.8 35.8 63.9 77.5 83.5 123.9 20.3 48 30.6 99 30.6 151.7 0 52.7-10.3 103.7-30.6 151.7-19.6 46.4-47.7 88.1-83.5 123.9-35.8 35.8-77.5 63.9-123.9 83.5-48 20.3-99 30.6-151.7 30.6-52.7 0-103.6-10.3-151.6-30.6-46.4-19.6-88.1-47.7-123.9-83.5-35.8-35.8-63.9-77.5-83.5-123.9-20.3-48-30.6-99-30.6-151.7 0-52.7 10.3-103.7 30.6-151.7 19.6-46.4 47.7-88.1 83.5-123.9 35.8-35.8 77.5-63.9 123.9-83.5 48-20.3 99-30.6 151.6-30.6m0-60c-248.4 0-449.7 201.3-449.7 449.7 0 248.4 201.3 449.7 449.7 449.7 248.4 0 449.7-201.3 449.7-449.7 0-248.4-201.3-449.7-449.7-449.7z" p-id="1791" fill="#bfbfbf"></path><path d="M512.5 264.6c33.8 0 66.6 6.6 97.4 19.6 29.8 12.6 56.5 30.6 79.5 53.6s41 49.8 53.6 79.5c13 30.8 19.6 63.6 19.6 97.4 0 33.8-6.6 66.6-19.6 97.4-12.6 29.8-30.6 56.5-53.6 79.5s-49.8 41-79.5 53.6c-30.8 13-63.6 19.6-97.4 19.6-33.8 0-66.6-6.6-97.4-19.6-29.8-12.6-56.5-30.6-79.5-53.6s-41-49.8-53.6-79.5c-13-30.8-19.6-63.6-19.6-97.4 0-33.8 6.6-66.6 19.6-97.4 12.6-29.8 30.6-56.5 53.6-79.5s49.8-41 79.5-53.6c30.9-13 63.6-19.6 97.4-19.6m0-60c-171.3 0-310.2 138.9-310.2 310.2 0 171.3 138.9 310.2 310.2 310.2 171.3 0 310.2-138.9 310.2-310.2 0-171.3-138.9-310.2-310.2-310.2z" p-id="1792" fill="#bfbfbf"></path></svg>